<?xml version="1.0" encoding="UTF-8"?>
<svg id="_图层_1" data-name="图层_1" xmlns="http://www.w3.org/2000/svg" version="1.1" viewBox="0 0 128 128">
  <!-- Generator: Adobe Illustrator 30.3.0, SVG Export Plug-In . SVG Version: 2.1.1 Build 22)  -->
  <defs>
    <style>
      .st0 {
        fill: #69c8f6;
      }

      .st1 {
        fill: #4deeed;
      }

      .st2 {
        fill: #76d6f9;
      }

      .st3 {
        fill: #64abfd;
      }

      .st4 {
        fill: #393939;
      }

      .st5 {
        fill: #6cb9fb;
      }

      .st6 {
        fill: #5deef5;
      }

      .st7 {
        fill: #7aeef8;
      }

      .st8 {
        fill: #63f1ec;
      }

      .st9 {
        fill: #ccc;
      }

      .st10 {
        fill: #46eee8;
      }

      .st11 {
        fill: #64b0fb;
      }

      .st12 {
        fill: #fbfefe;
      }

      .st13 {
        fill: #65b8f9;
      }

      .st14 {
        fill: #505050;
      }

      .st15 {
        fill: #68f0f4;
      }

      .st16 {
        fill: #68ddf3;
      }

      .st17 {
        fill: #70c8fa;
      }

      .st18 {
        fill: #fff;
        fill-opacity: .9;
      }

      .st19 {
        fill: #6bd5f7;
      }

      .st20 {
        fill: #65c0f7;
      }

      .st21 {
        fill: #66e4f1;
      }

      .st22 {
        fill: #55eef1;
      }

      .st23 {
        fill: #6798fc;
      }

      .st24 {
        fill: #f7fdfe;
      }

      .st25 {
        fill: #f9fdfe;
      }

      .st26 {
        fill: #8af0f8;
      }

      .st27 {
        fill: #484848;
      }

      .st28 {
        fill: #65ebee;
      }

      .st29 {
        fill: #4c4c4c;
      }

      .st30 {
        fill: #fdfdfd;
      }
    </style>
  </defs>
  <path class="st18" d="M38,86v-44h26c11.6,0,19,6,19,15.5s-4,12.7-11.2,14.7l17.2,13.8h-14.5l-12.6-12.4h-10.7v12.4h-13.2ZM51.2,60.3h11.8c4.9,0,7.6-2.4,7.6-6.4s-2.7-6.2-7.6-6.2h-11.8v12.6Z"/>
  <g>
    <path class="st30" d="M0,127.8V0h128v128H0v-.2ZM65.7,4.9l-.2.7c-2.8,3.3-4,7.6-6.4,11.1s-4.8,8.8-7.3,13l-6.2,10.7-6.5,11.2-5.3,9.1-5.2,9.2-6.2,10.8c-2.7,4.8-7.9,13.1-10.1,17.6s-.5,1,0,1h23.8c8.3-5,16.6-10,24.6-15.3.7-1.3.5-3,.6-4.6.4-.6.3-1.3.3-2.1s-.1-1.4,0-1.9l.2-3.8c.3-1.3.2-2.6.3-4l.4-8.1c0-1.3,0-2.6.5-4.2l24.7,41h29.7s-17.6-27.2-17.6-27.2l-.7-.8c-.1-.3-.3-.6-.4-.9l-26.7-48c0,0,0-.3,0-.4-.5-1.5-1.4-3.5-2.2-4.8,0-.5-3.5-10.9-3.9-9.1ZM65.3,107.2v-3.5s-4.5,0-4.5,0v3.5c0,0,4.5,0,4.5,0ZM29.1,123.4v-6.8s-6.6,0-6.6,0l1.9-3,.2,2.2h4.4c0,0,0-6.4,0-6.4,0-1.3-1.3-2.6-2.3-2.9s-3-.1-3.8,1.1l-10.2,15.8h5.2c0,0,1.6-2.5,1.6-2.5h4.9s.1,2.6.1,2.6h4.5ZM45.7,122.5c.1.4.8.9,1.3.9h9.9c.7,0,1.4-.5,1.7-1.2l.5-.3c.1,0-.1-.4-.2-.5v-15.1c-1.3,0-2.3,0-3.6,0h-.7c-.3,4-.3,8.2,0,12.5h-4.6c0,.1-.5-1.5-.5-1.5h-4.2s-.1,4-.1,4c0,.3.2,1.1.6,1.1ZM42.8,123.2h.3c.9-3.8.2-7.9.4-12.1s-1.2-2.3-2.3-2.3h-10.8s0,4.4,0,4.4h8.5c0,0,0,10.2,0,10.2l3.8-.2ZM61,109.4c-.4,4.6-.2,9.1-.2,14.1h4.6c0-4.8.2-9.4-.2-14.1s-1-.7-1.7-.6l-2.4.6ZM75.9,108.8v10.1s-4.1,0-4.1,0v-10.1s-4.5,0-4.5,0v12.4c0,1.3,1,2.2,2.2,2.2h10.8s0-14.6,0-14.6h-4.3ZM88.1,110.7v2.6c0,.2-.2.5-.2.7-.1,1.8-.1,5.3,0,7.2s1.2,2.2,2.3,2.2h7.9s2.8-4.3,2.8-4.3h-8.5c0,0-.1-5.1-.1-5.1l.3-.6h7.5s.5,0,.5,0c.1,0,.1-.3,0-.4-.6-1-1.8-2.9-2.6-4.1h-8.1c-1,0-1.7,1.1-1.7,1.9ZM113.6,123.2h.3c1-3.8.2-7.9.4-12.1s-1.2-2.3-2.4-2.3h-10.7s0,4.4,0,4.4h8.5c0,0,0,10.2,0,10.2l3.7-.2ZM34.9,123.4v-9.5c-1.6-.3-3-.3-4.5,0v9.4s4.5,0,4.5,0ZM105.9,123.3v-9.4c-1.6-.2-3-.2-4.6,0v9.5s4.6,0,4.6,0ZM86.3,123.6v-4.4c0,0-4.6,0-4.6,0v4.3s4.6,0,4.6,0Z"/>
    <path class="st7" d="M75.1,37.2h.3c.6,1.2,1.6,2.2,2.3,3.3l-.3.4,3.5,17.4c1.6,0,2.7.6,3.4,2l4.7-.6v1s-4.3.8-4.3.8l-1.5,2.5,8.1,14c.2.4.7.7,1,.9l1,.7c.7.4,1.2,1.3,1.4,2.3l19.6,11.9-15.3-24.5.7-.4,17.6,27.3h-29.7s-24.7-41-24.7-41c-.4,1.6-.5,2.9-.5,4.2h-1c0-2.7.2-5.4.4-8.2l5.9,9.7c3.9,0,7,0,11-.2l-17-11.2c-.4-.3-1-.5-1.4-.5s-1.1.7-1.2,1.1l-5.1,20.3c.9.9.5,2.2.5,3,1.7,3.2,3.5,6,5.5,9.1.3-2.6.6-4.8.7-7.1h.8c0,.6,0,1.4,0,1.9-.8.1-.7,1.6-.3,2.1,0,1.5.2,3.2-.6,4.6-.5,0-1.2-.1-1.6-.1,0-.3-.3-.9-.5-1.3l-4.8-8c-.1-.2-.6-.6-.8-.7s-.8.2-1.1.4l-9.1,8.4c.3-.7.9-2,1.3-2.7,2.4-2.1,4.9-4.4,7.1-6.9.5-.8-.3-3,1.7-2.9l5.4-21.1c-.9-1.4-.4-2.5.8-3.4l1.3-4.6c.1-.4,0-1.2,0-1.5l.6-1.4.9.7-1.5,6.8c.4.7.9,1.6,1.1,2.4,5.7,3.6,11.1,7.6,17.1,10.9l-15.3-24.3-1.4,3.6c-.6-.5-1-1.2-1-1.9,1.1-1,1.6-2.6,2.1-4,2.1.4,10.5,4.9,11.9,4.9ZM75.9,39l-11.4-4.8,15.1,23.8-3.7-19ZM80.5,64.3c-1.2-.8-1.6-1.3-2.2-2.3h-9.8c0,0,12,19.9,12,19.9v-17.6ZM90.9,81.6c.4-1,.3-1.7-.1-2.4l-9-15v18.8c0,0,9.1-1.3,9.1-1.3ZM87.8,94.2l4-11.6c-3.6.4-6.6.8-10.2,1.4l6.1,10.2ZM88.8,95h24.8c0,0-18.5-11.6-18.5-11.6-.4-.3-1.1-.6-1.4-.5s-1,.7-1.2,1.1l-3.7,11Z"/>
    <path class="st27" d="M29.1,123.4h-4.5s-.1-2.6-.1-2.6h-4.9s-1.6,2.5-1.6,2.5h-5.2c0,0,10.2-15.8,10.2-15.8.8-1.2,2.4-1.5,3.8-1.1s2.3,1.6,2.3,2.9v6.4s-4.4,0-4.4,0l-.2-2.2-1.9,3h6.6c0,0,0,6.9,0,6.9Z"/>
    <path class="st3" d="M22.5,88.4c.7,1.3,4.4,3,5.7,3.7l4.3,2.2c1.6.8,3.1,1.8,4.8,2-.4.9-.7,2-1,3H12.4c-.4,0,0-.8,0-1l10.1-9.9Z"/>
    <path class="st29" d="M75.9,108.8h4.3s0,14.5,0,14.5h-10.8c-1.2,0-2.2-1-2.2-2.2v-12.4s4.5,0,4.5,0v10.1s4.1,0,4.1,0v-10.1Z"/>
    <path class="st23" d="M59.2,83.8c.5,0,1.1,0,1.6.1-8,5.4-16.3,10.4-24.6,15.3.3-1,.7-2.1,1-3l1.8-4.4c.6-1.4,1-2.8,1.4-4.1s1.3-2.8,2-3.9h16.7Z"/>
    <path class="st15" d="M98.6,67.3h-.9c-1.4-1.8-2.7-3.8-4-5.9-.2-.2-.3-.2-.4,0v18.3c0,0-1-.7-1-.7v-18.5c-1.2,0-2.3.1-3.2.3v-1c.9-.1,1.8-.3,3.1-.6l-9.2-11.3c-.5-.6-.8-1.3-1.1-1.8,0,.1.2-.6,0-.9l-2.6-6.8c-.3-.7-.8-1.6-1.1-2.1-.6-2.3-1.9-4.5-2.7-6.6l-3.8-10.5,26.7,48Z"/>
    <path class="st28" d="M50.7,58.1l-6.7,7.6-1,.6c-.2-1.2-1-1.8-2.2-2.3l-4.3-2.2c-.9-.4-1.7-1-2.5-1.1l5.3-9.1c1.7.5,3.3,1.4,4.9,2.3l2.4,1.4c1.5.9,3.2,1.4,4.2,2.8Z"/>
    <path class="st1" d="M59.5,28.7c.4,2.5-.7,3.3-.7,5.6-.5,1.6-1,3.3-1.6,4.9l-5.1,2.1c-1.5.6-2.9,1.3-4.4,1.6-1-.5-1-2.6-2-2.5l6.2-10.7c1.1,2.6,7.8-3,7.7-1.5v.5Z"/>
    <path class="st8" d="M47.7,42.9c1.4,3.9,3.5,7.4,5.3,11.3s.6.6.9.7c0,.3-.4.8-.6,1l-2.6,2.2c-.9-1.4-2.6-1.9-4.2-2.8l-2.4-1.4c-1.6-.9-3.2-1.8-4.9-2.3l6.5-11.2c1-.1,1,2,2,2.5Z"/>
    <path class="st14" d="M43.1,123.2c-.1-.5-.2-.4-.3,0l-3.8.2v-10.1s-8.6,0-8.6,0v-4.4s10.8,0,10.8,0c1.1,0,2.4,1.2,2.3,2.3-.2,4.1.5,8.3-.4,12.1ZM43.1,111.2c0,0,0-.2-.2-.2s-.2,0-.2.2,0,.2.2.2.2,0,.2-.2Z"/>
    <path class="st21" d="M43,66.3c-1,1.3-2.6,2.7-3.7,4l-3.1,3.5-1.3.7-.7-1.7-5.6-2.9,5.2-9.2c.8.1,1.6.6,2.5,1.1l4.3,2.2c1.1.6,1.9,1.1,2.2,2.3Z"/>
    <path class="st29" d="M114,123.2l-.2-12.2-.2,12.2-3.7.2v-10.1s-8.6,0-8.6,0v-4.4s10.7,0,10.7,0c1.1,0,2.4,1,2.4,2.3-.2,4.2.5,8.3-.4,12.1Z"/>
    <path class="st27" d="M58.9,121.5c-.2,0-.3,0-.3.2v.5c-.3.7-1,1.2-1.7,1.2h-9.9c-.4,0-1.2-.5-1.3-.9l-.2-4.4c.5-.7,2.7-.8,3.2,0s.7,1.8,1.2,1.8h4.5c.2-.4.3-.8.4-1,.7-2.9.3-9.1.4-12.1s0-.2,0-.3c1.3,0,2.3-.1,3.7,0v15.1Z"/>
    <path class="st16" d="M35,74.5c-2,2.8-4.7,5.1-6.9,7.8l-.7.4c-.8.2-3.4-1.8-4.8-2l6.2-10.8,5.6,2.9.7,1.7Z"/>
    <path class="st27" d="M92.2,114v5c.1,0,8.6,0,8.6,0l-2.8,4.3h-7.9c-1.1,0-2.3-.8-2.3-2.2s0-5.4,0-7.2h4.3Z"/>
    <path class="st22" d="M62.7,16.6v.4c0,.4,0,1,0,1.3l-1.3,4.8c-.3,1.2-.5,2.1-.7,3s-.6,2-1.1,2.5v-.5c0-1.5-6.6,4.2-7.7,1.5,2.5-4.3,4.5-8.9,7.3-13,.5.7,1.4.7,2.2.4l1.3-.4Z"/>
    <path class="st5" d="M71.9,19.2l3.8,10.5c0-.2-4.7,1.6-3.9,1.9-.3,0-.9-.4-1.2-.7l-3.9-5.3c-.1-.2-.6-.5-.7-.5v-.6c.3-.9.2-1.9.2-2.9,2.1-.3,4.2-1.1,5.5-2.7,0,0,0,.3,0,.4Z"/>
    <path class="st19" d="M27.3,82.7c-1,1.9-4.2,4-4.9,5.7l-10.1,9.9c2.2-4.6,7.4-12.9,10.1-17.6,1.4.2,4,2.2,4.8,2Z"/>
    <path class="st29" d="M100.5,112.9l-.6.4h-7.5s-4,0-4,0v-2.3s-.4-.3-.4-.3c0-.8.7-1.9,1.7-1.9h8.1c.8,1.2,2,3.1,2.6,4.1Z"/>
    <path class="st29" d="M105.9,123.3h-4.6c0,0,0-9.4,0-9.4,1.6-.3,3-.3,4.6,0v9.4Z"/>
    <path class="st27" d="M65.1,109.4c0-.2-.4.4-.4.6v13s-3.3,0-3.3,0v-13c0-.2-.4-.8-.4-.7l2.4-.6c.6,0,1.6.1,1.7.6Z"/>
    <path class="st14" d="M34.9,123.4h-4.5s0-9.4,0-9.4c1.6-.3,3-.3,4.5,0v9.5Z"/>
    <path class="st11" d="M71.8,18.9c-1.4,1.6-3.5,2.4-5.5,2.7v-6.2c1.3-.1,2.5-.5,3.4-1.3.8,1.3,1.6,3.3,2.2,4.8Z"/>
    <path class="st6" d="M65.9,5.6v1c-.8-1.2-2.7,9.2-2.7,9.7l-.6.4-1.3.4c-.9.3-1.7.3-2.2-.4,2.4-3.5,3.7-7.9,6.4-11.1h.4Z"/>
    <polygon class="st29" points="86.3 123.6 81.7 123.5 81.7 119.2 86.3 119.2 86.3 123.6"/>
    <path class="st3" d="M69.7,14.1c-.8.8-2.1,1.2-3.3,1.3v-7.8c-.1-.2-.4-.8-.4-.7v-.3s0-1,0-1c0-.2-.2-.6-.2-.7.5-1.7,3.9,8.6,3.9,9.1Z"/>
    <path class="st14" d="M65.1,109.4c.4,4.7.2,9.3.2,14.1h-4.6c0-5-.1-9.5.2-14.1,0,0,.4.5.4.7v13s3.3,0,3.3,0v-13c0-.2.5-.8.4-.6Z"/>
    <path class="st14" d="M55.2,106.5c0,0,0,.2,0,.3,0-.2-.3.4-.3.6v11.5c-.1.2-.3.6-.5.9h-4.5c-.5,0-.9-1.3-1.2-1.7-.5-.7-2.7-.6-3.2,0l.2,4.4c-.4,0-.7-.8-.6-1.1v-4c.1,0,4.3,0,4.3,0l.5,1.7h4.6c-.2-4.4-.3-8.6,0-12.6h.7Z"/>
    <polygon class="st14" points="65.3 107.2 60.8 107.2 60.8 103.7 65.2 103.7 65.3 107.2"/>
    <path class="st6" d="M62.4,59.4l-.4,8.1c-.2,0-.6,0-.6.3v1.1c0,1,0,2,.3,2.7l-.2,3.8h-.8c.1-4.5,0-9,.6-13.5v-2.4c0,0,1.1,0,1.1,0Z"/>
    <polygon class="st4" points="114 123.2 113.6 123.2 113.8 111 114 123.2"/>
    <path class="st9" d="M88.5,113.3h4c0,0-.3.7-.3.7h-4.3c0-.1.2-.5.3-.7h.3Z"/>
    <path class="st26" d="M62,67.5c0,1.4,0,2.8-.3,4-.3-.7-.4-1.7-.3-2.7v-1.1c0-.2.4-.3.6-.3Z"/>
    <path class="st7" d="M98.6,67.3c.1.2.3.6.4.9l-.4.4-.8-1.1h.9Z"/>
    <path class="st26" d="M61.6,77.3c0,.8.1,1.5-.3,2.1-.4-.5-.6-2,.3-2.1Z"/>
    <polygon class="st15" points="99.7 69 99 69.3 98.5 68.5 99 68.1 99.7 69"/>
    <polygon class="st4" points="88.5 113.3 88.2 113.3 88.1 110.7 88.5 111 88.5 113.3"/>
    <path class="st14" d="M58.5,122.2v-.5c0-.1.2-.1.3-.2,0,0,.3.4.2.5l-.5.3Z"/>
    <path class="st4" d="M100.5,112.9c0,0,0,.4,0,.4h-.5s.6-.4.6-.4Z"/>
    <path class="st19" d="M65.9,5.6h-.4s.2-.7.2-.7c0,0,.2.5.2.7Z"/>
    <path class="st4" d="M43.1,123.2h-.3c.2-.4.2-.5.3,0Z"/>
    <path class="st25" d="M61.4,59.4v2.4c-.8,4.5-.5,9.1-.7,13.5s-.4,4.5-.7,7.1c-2-3.1-3.8-6-5.5-9.1,0-.8.4-2.2-.5-3l5.1-20.3c.1-.4.9-1,1.2-1.1s1,.2,1.4.5l17,11.2c-4,.3-7.2.2-11,.2l-5.9-9.7c-.2,2.8-.4,5.5-.4,8.2Z"/>
    <path class="st12" d="M97.7,67.4l.8,1.1.5.8,15.3,24.5-19.6-11.9c-.2-.9-.7-1.9-1.4-2.3v-18.3c0,0,.4,0,.4,0,1.3,2,2.6,4,4,6Z"/>
    <path class="st12" d="M88.8,95l3.7-11c.2-.3.8-1,1.2-1.1s1,.2,1.4.5l18.5,11.5h-24.8Z"/>
    <path class="st12" d="M62,38.8v-.6s1.4-3.6,1.4-3.6l15.3,24.3c-6.1-3.3-11.5-7.3-17.1-10.9-.2-.8-.7-1.7-1.1-2.4l1.5-6.8Z"/>
    <path class="st13" d="M44.4,78.3l-.3,1.7c-.4.7-1,2-1.3,2.7s-.3.9-.4,1.2c-.7,1.2-1.6,2.6-2,3.9-.4,0-1.5,0-2-.2l-3.5-1.8-3.8-2.1-3.1-1.5c2.3-2.6,4.9-5,6.9-7.8l1.3-.7,1.6,1c1.5.9,3,1.7,4.6,2.5l1.9,1Z"/>
    <path class="st25" d="M80.5,64.3v17.6s-12.1-19.8-12.1-19.8h9.8c.6.9,1,1.4,2.2,2.2Z"/>
    <path class="st24" d="M44.1,80l.3-1.7c1.7-3.3,2.8-6.9,4.2-10.4l4.4-10.7c.1-.4.2-1.1.2-1.3.2-.2.5-.7.6-1,.2-.5.4-1.2.4-1.7.2-.2.7-.7.8-1.1l3.3-8.4c.6-1.5,1.3-2.9,2-4.3,0,.3.2,1.2,0,1.5l-1.3,4.6c-1.2,1-1.7,2-.8,3.4l-5.4,21.1c-2,0-1.2,2.1-1.7,2.9-2.2,2.5-4.7,4.7-7.1,6.9Z"/>
    <path class="st25" d="M82,46c.3.5.6,1.3,1.1,1.8l9.2,11.3c-1.3.3-2.2.5-3.2.6l-4.7.6c-.7-1.4-1.8-2-3.4-2l-3.5-17.4.3-.4c1.3,1.9,2.7,3.9,4.3,5.6Z"/>
    <polygon class="st25" points="75.9 39 79.6 58 64.5 34.2 75.9 39"/>
    <path class="st25" d="M92.4,78.9c-.3-.2-.8-.5-1-.9l-8.1-14,1.5-2.5,4.4-.8c1-.2,2.1-.2,3.2-.3v18.5Z"/>
    <path class="st12" d="M90.9,81.6l-9.2,1.3v-18.8c0,0,9.1,15,9.1,15,.4.7.5,1.4.1,2.4Z"/>
    <path class="st24" d="M59.2,83.8h-16.7c0-.3.2-.9.4-1.2l9.1-8.4c.3-.2.8-.5,1.1-.4s.7.5.8.7l4.8,8c.2.4.4,1,.5,1.3Z"/>
    <path class="st25" d="M87.8,94.2l-6.1-10.2c3.6-.6,6.5-1.1,10.2-1.4l-4,11.6Z"/>
    <path class="st25" d="M71.8,31.6c0,.5.3,1.2.6,1.7l2.7,3.8c-1.4,0-9.9-4.5-11.9-4.9.4-1.1.7-2.5,1.2-3.6l1.7-3.6c0,0,.6.4.7.5l3.9,5.3c.2.3.9.6,1.2.7Z"/>
    <path class="st21" d="M64.4,28.7c-.5,1-.8,2.5-1.2,3.6s-1.1,3-2.1,4c-1-.2-1.8-1-2.2-2,0-2.3,1.1-3.1.7-5.6.5-.6,1-1.6,1.1-2.5.8,1.4,2.1,2.2,3.7,2.5Z"/>
    <path class="st17" d="M75.7,29.7c.8,2.2,2.1,4.3,2.7,6.6l-3,.9h-.3s-2.7-3.8-2.7-3.8c-.3-.5-.6-1.2-.6-1.7-.8-.4,3.9-2.2,3.9-1.9Z"/>
    <path class="st28" d="M61,36.3c0,.8.4,1.5,1,1.9v.6s-1-.7-1-.7l-.6,1.4c-.7,1.4-1.4,2.8-2,4.3l-1.8-.6c.3-1.2.5-2.7.6-4,.6-1.6,1.1-3.3,1.6-4.9.5.9,1.2,1.7,2.2,2Z"/>
    <path class="st2" d="M78.4,36.3c.3.5.8,1.3,1.1,2.1l2.6,6.8c0,.2,0,1,0,.9-1.6-1.7-2.9-3.6-4.3-5.6s-1.7-2.1-2.3-3.3l3-.9Z"/>
    <path class="st11" d="M40.5,87.8c-.4,1.3-.8,2.7-1.4,4.1l-1.8,4.4c-1.7-.1-3.2-1.1-4.8-2l-4.3-2.2c-1.3-.7-5-2.4-5.7-3.7.7-1.7,3.9-3.8,4.9-5.7l.7-.4,3.1,1.5,3.8,2.1,3.5,1.8c.4.2,1.5.2,2,.2Z"/>
    <path class="st7" d="M93.8,61.4h-.4c.1-.2.2-.2.4,0Z"/>
    <path class="st20" d="M48.6,67.9c-1.4,3.5-2.5,7.1-4.2,10.4l-1.9-1c-1.6-.8-3.1-1.6-4.6-2.5l-1.6-1,3.1-3.5c1.1-1.3,2.7-2.7,3.7-4l1-.6c1.6,0,2.2,1.9,4.6,2.3Z"/>
    <path class="st0" d="M48.6,67.9c-2.4-.4-3-2.2-4.6-2.3l6.7-7.6,2.6-2.2c0,.2,0,1-.2,1.3l-4.4,10.7Z"/>
    <path class="st10" d="M57.2,39.2c-.1,1.2-.3,2.7-.6,4-.9,3.3-1.9,6.7-2.3,10.1s-.3,1.2-.4,1.7c-.2,0-.7-.4-.9-.7-1.8-3.9-3.9-7.5-5.3-11.3,1.5-.3,2.9-.9,4.4-1.6l5.1-2.1Z"/>
    <circle class="st4" cx="42.9" cy="111.2" r=".2"/>
    <path class="st4" d="M54.8,118.9v-11.5c0-.2.5-.8.4-.6-.2,3,.3,9.1-.4,12.1Z"/>
    <path class="st16" d="M65.9,20.3v4.2c0,0,.2.6.2.6l-1.7,3.6c-1.6-.3-2.9-1.1-3.7-2.5.2-1,.4-1.8.7-3l1.3-4.8c.9.9,2,1.7,3.3,2Z"/>
    <path class="st19" d="M65.9,6.6v.3s0,13.5,0,13.5c-1.3-.2-2.4-1-3.3-2,0-.3.1-1,.2-1.3.2,0,.5,0,.5-.3v-.5c0-.4,1.9-10.9,2.7-9.7Z"/>
    <path class="st16" d="M63.2,16.2v.5c0,.2-.3.2-.5.3v-.4c-.1,0,.5-.4.5-.4Z"/>
    <path class="st17" d="M66.4,15.3v6.2c-.1,1,0,2.1-.4,2.9v-4.2c0,0,0-13.5,0-13.5,0,0,.3.5.3.7v7.8Z"/>
    <path class="st8" d="M58.4,43.8l-3.3,8.4c-.1.3-.6.9-.8,1.1.4-3.4,1.4-6.8,2.3-10.1l1.8.6Z"/>
  </g>
</svg>